# xmcd
#
# Track frame offsets:
#	150
#	24686
#	43070
#	76329
#	114378
#
# Disc length: 2018 seconds
#
# Revision: 1
# Processed by: cddbd v1.5.2PL0 Copyright (c) Steve Scherf et al.
# Submitted via: audiograbber 1.83.01
#
DISCID=3607e005
DTITLE=Grateful Dead - 82-05-28 Moscone Convention Centre, San Francisco CA
DYEAR=1900
DGENRE=
TTITLE0=Alabama Getaway
TTITLE1=Greatest Story Ever Told
TTITLE2=Althea
TTITLE3=Little Red Rooster
TTITLE4=Tennessee Jed
EXTD=
EXTT0=
EXTT1=
EXTT2=
EXTT3=
EXTT4=
PLAYORDER=
